# Blender 5.1.2
# www.blender.org
mtllib Untitled.mtl
o cube
v 0.216585 -0.214502 -0.000764
v -0.004385 -0.214503 -0.221734
v 0.216585 -0.464503 -0.000764
v -0.004385 -0.464503 -0.221734
v -0.225355 -0.214502 -0.000764
v -0.004385 -0.214502 0.220206
v -0.225355 -0.464503 -0.000764
v -0.004385 -0.464502 0.220206
v -0.225355 -0.214502 -0.000764
v -0.004385 -0.214503 -0.221734
v -0.004385 -0.214502 0.220206
v 0.216585 -0.214502 -0.000764
v -0.004385 -0.464502 0.220206
v 0.216585 -0.464503 -0.000764
v -0.225355 -0.464503 -0.000764
v -0.004385 -0.464503 -0.221734
v -0.004385 -0.214502 0.220206
v 0.216585 -0.214502 -0.000764
v -0.004385 -0.464502 0.220206
v 0.216585 -0.464503 -0.000764
v -0.004385 -0.214503 -0.221734
v -0.225355 -0.214502 -0.000764
v -0.004385 -0.464503 -0.221734
v -0.225355 -0.464503 -0.000764
vn 0.7071 -0.0000 -0.7071
vn -0.7071 -0.0000 0.7071
vn -0.0000 1.0000 -0.0000
vn -0.0000 -1.0000 -0.0000
vn 0.7071 -0.0000 0.7071
vn -0.7071 -0.0000 -0.7071
vt 0.593750 0.500000
vt 0.593750 0.375000
vt 0.750000 0.500000
vt 0.750000 0.375000
vt 0.125000 0.875000
vt 0.125000 0.625000
vt 0.375000 0.875000
vt 0.375000 0.625000
s 1
usemtl Material_0
f 1/1/1 3/2/1 2/3/1
f 3/2/1 4/4/1 2/3/1
f 5/1/2 7/2/2 6/3/2
f 7/2/2 8/4/2 6/3/2
f 9/5/3 11/6/3 10/7/3
f 11/6/3 12/8/3 10/7/3
f 13/5/4 15/6/4 14/7/4
f 15/6/4 16/8/4 14/7/4
f 17/1/5 19/2/5 18/3/5
f 19/2/5 20/4/5 18/3/5
f 21/1/6 23/2/6 22/3/6
f 23/2/6 24/4/6 22/3/6
o cube.001
v 0.216585 2.410497 -0.000765
v -0.004385 2.410497 -0.221735
v 0.216585 2.160497 -0.000765
v -0.004385 2.160497 -0.221735
v -0.225355 2.410497 -0.000765
v -0.004385 2.410497 0.220205
v -0.225355 2.160497 -0.000765
v -0.004385 2.160497 0.220205
v -0.225355 2.410497 -0.000765
v -0.004385 2.410497 -0.221735
v -0.004385 2.410497 0.220205
v 0.216585 2.410497 -0.000765
v -0.004385 2.160497 0.220205
v 0.216585 2.160497 -0.000765
v -0.225355 2.160497 -0.000765
v -0.004385 2.160497 -0.221735
v -0.004385 2.410497 0.220205
v 0.216585 2.410497 -0.000765
v -0.004385 2.160497 0.220205
v 0.216585 2.160497 -0.000765
v -0.004385 2.410497 -0.221735
v -0.225355 2.410497 -0.000765
v -0.004385 2.160497 -0.221735
v -0.225355 2.160497 -0.000765
vn 0.7071 -0.0000 -0.7071
vn -0.7071 -0.0000 0.7071
vn -0.0000 1.0000 -0.0000
vn -0.0000 -1.0000 -0.0000
vn 0.7071 -0.0000 0.7071
vn -0.7071 -0.0000 -0.7071
vt 0.593750 0.500000
vt 0.593750 0.375000
vt 0.750000 0.500000
vt 0.750000 0.375000
vt 0.125000 0.875000
vt 0.125000 0.625000
vt 0.375000 0.875000
vt 0.375000 0.625000
s 1
usemtl Material_0
f 25/9/7 27/10/7 26/11/7
f 27/10/7 28/12/7 26/11/7
f 29/9/8 31/10/8 30/11/8
f 31/10/8 32/12/8 30/11/8
f 33/13/9 35/14/9 34/15/9
f 35/14/9 36/16/9 34/15/9
f 37/13/10 39/14/10 38/15/10
f 39/14/10 40/16/10 38/15/10
f 41/9/11 43/10/11 42/11/11
f 43/10/11 44/12/11 42/11/11
f 45/9/12 47/10/12 46/11/12
f 47/10/12 48/12/12 46/11/12
o cube.002
v 0.089365 2.160497 0.092985
v 0.089365 2.160497 -0.094515
v 0.089365 -0.214502 0.092986
v 0.089365 -0.214502 -0.094514
v -0.098135 2.160497 -0.094515
v -0.098135 2.160497 0.092985
v -0.098135 -0.214502 -0.094514
v -0.098135 -0.214502 0.092986
v -0.098135 2.160497 -0.094515
v 0.089365 2.160497 -0.094515
v -0.098135 2.160497 0.092985
v 0.089365 2.160497 0.092985
v -0.098135 -0.214502 0.092986
v 0.089365 -0.214502 0.092986
v -0.098135 -0.214502 -0.094514
v 0.089365 -0.214502 -0.094514
v -0.098135 2.160497 0.092985
v 0.089365 2.160497 0.092985
v -0.098135 -0.214502 0.092986
v 0.089365 -0.214502 0.092986
v 0.089365 2.160497 -0.094515
v -0.098135 2.160497 -0.094515
v 0.089365 -0.214502 -0.094514
v -0.098135 -0.214502 -0.094514
vn 1.0000 -0.0000 -0.0000
vn -1.0000 -0.0000 -0.0000
vn -0.0000 1.0000 -0.0000
vn -0.0000 -1.0000 -0.0000
vn -0.0000 -0.0000 1.0000
vn -0.0000 -0.0000 -1.0000
vt 0.500000 0.500000
vt 0.500000 0.000000
vt 0.593750 0.500000
vt 0.593750 0.000000
vt 0.781250 0.500000
vt 0.781250 0.390625
vt 0.890625 0.500000
vt 0.890625 0.390625
s 1
usemtl Material_0
f 49/17/13 51/18/13 50/19/13
f 51/18/13 52/20/13 50/19/13
f 53/17/14 55/18/14 54/19/14
f 55/18/14 56/20/14 54/19/14
f 57/21/15 59/22/15 58/23/15
f 59/22/15 60/24/15 58/23/15
f 61/21/16 63/22/16 62/23/16
f 63/22/16 64/24/16 62/23/16
f 65/17/17 67/18/17 66/19/17
f 67/18/17 68/20/17 66/19/17
f 69/17/18 71/18/18 70/19/18
f 71/18/18 72/20/18 70/19/18
o cube.003
v 0.702721 2.035497 -0.000765
v -0.004385 2.035497 -0.707871
v 0.702721 1.035498 -0.000764
v -0.004385 1.035497 -0.707870
v -0.711491 2.035497 -0.000765
v -0.004385 2.035498 0.706341
v -0.711491 1.035498 -0.000764
v -0.004385 1.035498 0.706342
v -0.711491 2.035497 -0.000765
v -0.004385 2.035497 -0.707871
v -0.004385 2.035498 0.706341
v 0.702721 2.035497 -0.000765
v -0.004385 1.035498 0.706342
v 0.702721 1.035498 -0.000764
v -0.711491 1.035498 -0.000764
v -0.004385 1.035497 -0.707870
v -0.004385 2.035498 0.706341
v 0.702721 2.035497 -0.000765
v -0.004385 1.035498 0.706342
v 0.702721 1.035498 -0.000764
v -0.004385 2.035497 -0.707871
v -0.711491 2.035497 -0.000765
v -0.004385 1.035497 -0.707870
v -0.711491 1.035498 -0.000764
vn 0.7071 -0.0000 -0.7071
vn -0.7071 -0.0000 0.7071
vn -0.0000 1.0000 -0.0000
vn -0.0000 -1.0000 -0.0000
vn 0.7071 -0.0000 0.7071
vn -0.7071 -0.0000 -0.7071
vt 0.000000 0.500000
vt 0.000000 0.000000
vt 0.500000 0.500000
vt 0.500000 0.000000
vt 0.500000 1.000000
vt 0.000000 1.000000
vt 1.000000 1.000000
vt 1.000000 0.500000
s 1
usemtl Material_0
f 73/25/19 75/26/19 74/27/19
f 75/26/19 76/28/19 74/27/19
f 77/25/20 79/26/20 78/27/20
f 79/26/20 80/28/20 78/27/20
f 81/29/21 83/30/21 82/27/21
f 83/30/21 84/25/21 82/27/21
f 85/29/22 87/27/22 86/31/22
f 87/27/22 88/32/22 86/31/22
f 89/25/23 91/26/23 90/27/23
f 91/26/23 92/28/23 90/27/23
f 93/25/24 95/26/24 94/27/24
f 95/26/24 96/28/24 94/27/24
